<svg width="160" height="154" viewBox="0 0 160 154" fill="none" xmlns="http://www.w3.org/2000/svg">
<path d="M27.5372 55.3734C26.6908 52.856 26.8072 49.853 27.1878 47.1851C27.1881 47.1824 27.188 47.1797 27.1872 47.177C27.1865 47.1744 27.1863 47.1717 27.1867 47.169C27.6336 44.0289 28.5393 40.8779 29.2611 38.1096C29.7458 36.2472 30.3342 34.4148 31.0447 32.6457C32.3852 29.3103 34.2401 26.2508 36.4103 23.5575C38.9881 20.3562 42.0072 17.604 45.3483 15.5938C48.1466 13.9117 51.1855 12.7572 54.2864 12.3803C57.5897 11.9825 60.8405 12.8088 63.9971 13.7249L64.0227 13.7286C67.8591 14.8371 71.6379 16.1937 75.2951 17.8848C79.7544 19.9465 84.0428 22.5077 87.952 25.7034C93.3296 30.0989 98.1653 34.746 101.721 41.2341C104.972 47.1625 112.236 61.3767 114.199 68.0473C115.381 72.0669 109.292 71.1579 111.824 74.2645C113.846 76.7479 118.372 77.3886 118.076 81.4235C117.923 83.5166 117.424 85.4077 117.466 87.502C117.513 89.7996 117.586 92.0972 117.646 94.3966C117.653 94.6998 117.682 94.9831 117.733 95.2542C117.765 95.4425 117.808 95.6283 117.859 95.8039C118.379 97.6373 119.66 98.9174 119.809 101.161C119.948 103.223 115.604 104.486 117.371 105.633C119.289 106.874 119.56 106.179 125.141 108.422C131.984 111.173 135.583 113.921 138.912 117.409C141.595 120.223 144.391 123.781 144.866 128.174C145.088 130.221 144.807 132.193 143.332 133.601C141.695 135.165 139.804 136.231 137.67 136.141C135.814 136.06 133.956 135.853 132.131 135.517C128.766 134.9 125.4 134.245 122.077 133.423C117.235 132.229 112.424 130.886 107.607 129.588C101.904 128.049 96.1533 126.733 90.3196 125.899C86.1827 125.306 82.031 124.772 77.8635 124.469C74.1442 124.197 70.4011 124.184 66.6614 124.171L66.2281 124.17C61.399 124.155 56.5858 124.567 51.8145 125.831C46.0888 127.349 40.5844 129.72 35.1332 132.298C30.8197 134.338 26.4803 136.118 21.7835 135.553C19.7502 135.309 17.7501 134.921 15.9473 133.819C14.2415 132.773 12.937 131.287 12.9992 128.817C13.0425 127.095 13.5553 125.477 14.5214 124.081C16.3749 121.408 18.739 119.461 21.218 117.699C26.6073 113.873 32.3133 110.922 38.3451 108.92C39.2092 108.634 39.4424 107.921 39.7936 107.042C40.1862 106.054 40.5419 105.049 40.9767 104.086C41.2332 103.516 41.5114 102.877 41.8764 102.383C41.901 102.35 41.9271 102.32 41.9558 102.29C42.26 101.972 44.1086 99.9813 43.8924 98.7372C43.6795 97.5119 45.4694 95.562 45.8142 95.1997C45.8519 95.16 45.8868 95.1182 45.9187 95.0736C46.5106 94.2458 47.1879 93.5023 47.7808 92.6743C48.3365 91.9005 48.5532 91.0479 48.4449 89.9922C48.2079 87.698 48.5385 85.4618 49.645 83.4087C50.4866 81.8495 53.2004 81.7159 53.2993 79.852C53.3675 78.5384 49.9391 79.3659 49.7637 78.0864C49.3622 75.1646 49.8964 72.9229 50.4885 69.9589C51.0469 67.1662 51.9621 64.4662 52.4575 61.6568C52.6949 60.3202 52.3729 59.0634 52.0555 57.8242L52.0404 57.7651C51.6906 56.3996 51.4708 54.9456 51.2476 53.5407C50.8164 50.8213 49.3004 47.3966 50.7129 45.1693C50.8095 45.0169 50.8761 44.844 50.9577 44.683C51.6705 43.2772 56.354 39.7569 55.3793 37.9334C53.76 34.9041 49.4583 39.276 49.316 39.3477C49.1737 39.4194 48.0614 40.4427 47.5667 40.9421C46.9576 41.5591 46.3742 42.2027 45.7988 42.8589C44.6508 44.1756 43.5473 45.5483 42.4079 46.8738C40.402 49.2081 38.3957 51.5461 36.3893 53.8841C34.7975 55.7342 33.2654 57.3901 30.9394 57.6517C30.205 57.7345 29.4327 57.6666 28.8083 57.2411C28.2074 56.8342 27.792 56.1287 27.5372 55.3734Z" fill="currentColor"/>
<defs>
<filter id="filter0_d_1347_925" x="0.99707" y="0.277344" width="155.936" height="147.869" filterUnits="userSpaceOnUse" color-interpolation-filters="sRGB">
<feFlood flood-opacity="0" result="BackgroundImageFix"/>
<feColorMatrix in="SourceAlpha" type="matrix" values="0 0 0 0 0 0 0 0 0 0 0 0 0 0 0 0 0 0 127 0" result="hardAlpha"/>
<feMorphology radius="3" operator="dilate" in="SourceAlpha" result="effect1_dropShadow_1347_925"/>
<feOffset/>
<feGaussianBlur stdDeviation="4.5"/>
<feComposite in2="hardAlpha" operator="out"/>
<feColorMatrix type="matrix" values="0 0 0 0 0.376471 0 0 0 0 1 0 0 0 0 0.54902 0 0 0 0.2 0"/>
<feBlend mode="normal" in2="BackgroundImageFix" result="effect1_dropShadow_1347_925"/>
<feBlend mode="normal" in="SourceGraphic" in2="effect1_dropShadow_1347_925" result="shape"/>
</filter>
</defs>
</svg>
