<svg width="120" height="24" viewBox="0 0 163 66" fill="none"  xmlns="http://www.w3.org/2000/svg">
  <g>
    <path fill-rule="evenodd" clip-rule="evenodd" d="M33.5174 65.6598C51.6489 65.6598 66.3473 50.9614 66.3473 32.8299C66.3473 14.6984 51.6489 0 33.5174 0C15.3859 0 0.6875 14.6984 0.6875 32.8299C0.6875 50.9614 15.3859 65.6598 33.5174 65.6598ZM26.8829 24.4115L35.664 40.0673L35.6654 40.0691L35.6667 40.0709C36.73 41.9655 38.9033 43.1619 41.2823 43.1619H48.6781C50.344 43.1619 51.4293 41.6 50.6841 40.2731L40.7871 22.6274C37.737 17.1894 29.933 17.1894 26.8829 22.6274C26.5728 23.1814 26.5728 23.8576 26.8829 24.4115ZM16.3533 40.2719L22.8712 28.6515C23.697 27.1785 26.0573 27.1785 26.8832 28.6515L33.401 40.2719C34.1461 41.5988 33.0609 43.1607 31.395 43.1607H18.3593C16.6935 43.1607 15.6082 41.5988 16.3533 40.2719ZM21.1609 19.7495C21.8242 19.5041 21.8242 18.5658 21.1609 18.3204L18.9341 17.4964C18.7255 17.4192 18.5611 17.2548 18.4839 17.0462L17.66 14.8194C17.4145 14.1561 16.4762 14.1561 16.2308 14.8194L15.4068 17.0462C15.3296 17.2548 15.1652 17.4192 14.9566 17.4964L12.7299 18.3204C12.0665 18.5658 12.0665 19.5041 12.7299 19.7495L14.9566 20.5735C15.1652 20.6507 15.3296 20.8151 15.4068 21.0237L16.2308 23.2504C16.4762 23.9138 17.4145 23.9138 17.66 23.2504L18.4839 21.0237C18.5611 20.8151 18.7255 20.6507 18.9341 20.5735L21.1609 19.7495Z" fill="black"/>
  </g>
  <text x="70" y="45" font-family="Inter, -apple-system, BlinkMacSystemFont, 'Segoe UI', Roboto, sans-serif" font-size="36" font-weight="600" letter-spacing="-0.02em" fill="black">Artop</text>
</svg>